<svg xmlns="http://www.w3.org/2000/svg" xmlns:xlink="http://www.w3.org/1999/xlink" xml:space="preserve" version="1.1" style="shape-rendering:geometricPrecision;text-rendering:geometricPrecision;image-rendering:optimizeQuality;" viewBox="0 0 186 326.25" x="0px" y="0px" fill-rule="evenodd" clip-rule="evenodd"><defs><style type="text/css">
   
    .fil0 {fill:black}
   
  </style></defs><g><path class="fil0" d="M62 162c0,0 7,20 12,23 4,4 14,6 19,1 4,5 14,3 19,-1 5,-3 12,-23 12,-23 2,-3 3,-2 2,2 0,3 -2,7 -3,11 -3,5 -15,14 -15,13 0,0 -2,4 -4,6 -4,3 -18,3 -22,0 -2,-2 -1,-5 -4,-6 -3,-1 -12,-8 -15,-13 -1,-4 -3,-9 -4,-12 -1,-3 1,-4 3,-1zm25 6c5,2 7,2 11,0 0,-5 -10,-5 -11,0zm-51 40l-3 -16c-7,-1 -10,-7 -11,-14 -5,-1 -7,-5 -8,-10 -5,24 0,27 22,40zm114 2c22,-12 27,-17 22,-42 -1,5 -4,9 -8,10 -1,7 -4,13 -11,14l-3 18zm-1 -144c2,-19 0,-28 -3,-46 -11,8 -21,17 -32,25l9 2 -20 27c6,-4 12,-5 20,-2 1,0 16,-9 26,-6zm-66 8l-20 -27 9 -2c-11,-8 -21,-17 -32,-25 -4,19 -6,27 -3,46 10,-3 25,6 26,6 7,-3 13,-2 20,2zm10 78c0,0 11,4 14,7 2,3 4,12 1,16 -3,4 -12,6 -15,6 -3,0 -12,-2 -15,-6 -3,-4 -1,-13 1,-16 3,-3 14,-7 14,-7zm0 109c31,-39 93,-39 93,-79 0,-7 -10,-51 -10,-51 -5,13 2,34 -13,16 0,9 2,27 -10,19 0,9 2,22 -9,10 -2,9 -3,17 -4,26 -4,-4 -7,-9 -11,-14 0,16 -6,19 -8,26 -1,-3 -3,-6 -4,-8 -2,7 -7,25 -16,12 -4,15 -12,15 -16,0 -10,13 -14,-5 -16,-12 -2,2 -3,5 -5,8 -1,-7 -7,-10 -7,-26 -4,5 -7,10 -11,14 -1,-9 -3,-17 -4,-26 -11,12 -9,-1 -9,-10 -12,8 -10,-10 -10,-19 -16,19 -8,-3 -13,-16 0,0 -10,44 -10,51 0,35 65,43 93,79zm77 -128c-12,-6 -22,-7 -23,-22 -7,11 -13,23 -28,20 -1,7 -2,13 -3,20 -1,-6 -13,-27 -14,-23 -1,2 -1,8 0,10 5,10 6,3 6,19 -11,-13 -19,-13 -30,0 0,-16 0,-9 6,-19 1,-2 1,-8 0,-10 -1,-4 -13,17 -14,23 -1,-7 -2,-13 -3,-20 -15,3 -21,-9 -28,-20 -1,15 -11,16 -23,22 2,-4 4,-8 7,-12 -5,1 -9,3 -14,4 2,-10 4,-19 6,-28 -1,-1 -2,-1 -4,-1 5,-8 10,-15 16,-22 -5,-30 0,-46 6,-74 16,12 31,25 47,37 4,-1 8,-3 13,-4 -4,32 -15,15 0,36 14,-19 3,-6 0,-36 5,1 9,3 13,4 16,-12 31,-25 47,-37 6,28 11,44 6,74 5,7 11,14 16,22 -2,0 -3,0 -4,1 2,9 4,18 6,28 -5,-1 -9,-3 -14,-4 2,4 5,8 7,12zm-50 -42c13,-12 -16,-12 -19,0 -1,4 1,12 1,12 1,-2 2,-3 3,-4 -4,9 -8,25 7,17 5,12 25,-10 25,-13 1,-9 -9,-14 -17,-12zm12 -11c0,0 8,-3 12,-3 4,0 12,10 12,10 -2,0 -4,0 -7,0 7,4 11,11 13,19 -3,-2 -6,-4 -8,-6 0,0 5,5 7,11 3,5 3,8 3,8 -5,-4 -11,-8 -16,-13 1,-1 3,-2 4,-3 -3,-3 -7,-6 -11,-10 3,0 5,0 8,-1 0,0 -4,-10 -17,-12zm-16 9c-5,2 -8,6 -7,11 4,-4 7,-5 7,-11zm-46 0c5,2 7,6 6,11 -3,-4 -6,-5 -6,-11zm-16 11c7,2 14,-1 17,0 1,1 7,13 7,13 -12,-1 -18,-2 -24,-13zm78 0c-7,2 -14,-1 -17,0 -1,1 -7,13 -7,13 11,-1 17,-2 24,-13zm-10 2c-1,5 -5,5 -9,4 2,7 12,3 9,-4zm-58 0c1,5 5,5 9,4 -2,7 -12,3 -9,-4zm1 -11c-12,-12 17,-12 20,0 0,4 -1,12 -1,12 -1,-2 -2,-3 -3,-4 4,9 8,25 -8,17 -4,12 -24,-10 -24,-13 -1,-9 9,-14 16,-12zm-11 -11c0,0 -9,-3 -12,-3 -4,0 -12,10 -12,10 2,0 4,0 7,0 -7,4 -12,11 -13,19 3,-2 5,-4 8,-6 0,0 -5,5 -8,11 -2,5 -2,8 -2,8 5,-4 11,-8 16,-13 -1,-1 -3,-2 -4,-3 3,-3 7,-6 11,-10 -3,0 -5,0 -8,-1 0,0 4,-10 17,-12z"/></g><text x="0" y="276" fill="#000000" font-size="5px" font-weight="bold" font-family="'Helvetica Neue', Helvetica, Arial-Unicode, Arial, Sans-serif">Created by 2007 ruli</text><text x="0" y="281" fill="#000000" font-size="5px" font-weight="bold" font-family="'Helvetica Neue', Helvetica, Arial-Unicode, Arial, Sans-serif">from the Noun Project</text></svg>